<mxfile host="app.diagrams.net" modified="2023-12-09T12:33:13.738Z" agent="Mozilla/5.0 (Windows NT 10.0; Win64; x64) AppleWebKit/537.36 (KHTML, like Gecko) Chrome/120.0.0.0 Safari/537.36" etag="X0Qwrj7Oiqcfn8Rs5Rye" version="22.1.7" type="github">
  <diagram name="Page-1" id="nw29hAhJe0gsJ7tNHZK8">
    <mxGraphModel dx="1444" dy="913" grid="1" gridSize="10" guides="1" tooltips="1" connect="1" arrows="1" fold="1" page="1" pageScale="1" pageWidth="850" pageHeight="1100" math="0" shadow="0">
      <root>
        <mxCell id="0" />
        <mxCell id="1" parent="0" />
        <mxCell id="8BVpdNehEAl6KAuz26KA-6" value="Start" style="strokeWidth=2;html=1;shape=mxgraph.flowchart.terminator;whiteSpace=wrap;fontStyle=1;fillColor=#d5e8d4;strokeColor=#82b366;" parent="1" vertex="1">
          <mxGeometry x="162.5" y="100" width="110" height="50" as="geometry" />
        </mxCell>
        <mxCell id="8BVpdNehEAl6KAuz26KA-9" value="Sum = Number_X + Number_Y" style="rounded=1;whiteSpace=wrap;html=1;absoluteArcSize=1;arcSize=14;strokeWidth=2;fontStyle=1" parent="1" vertex="1">
          <mxGeometry x="551.25" y="170" width="187.5" height="50" as="geometry" />
        </mxCell>
        <mxCell id="8BVpdNehEAl6KAuz26KA-14" value="STOP" style="strokeWidth=2;html=1;shape=mxgraph.flowchart.terminator;whiteSpace=wrap;fontStyle=1;fillColor=#f8cecc;strokeColor=#b85450;" parent="1" vertex="1">
          <mxGeometry x="167.5" y="950" width="100" height="60" as="geometry" />
        </mxCell>
        <mxCell id="8BVpdNehEAl6KAuz26KA-23" value="&lt;b&gt;Display Value&lt;br&gt;- Input&lt;br style=&quot;border-color: var(--border-color);&quot;&gt;- Sum&lt;br style=&quot;border-color: var(--border-color);&quot;&gt;- Sub&lt;br style=&quot;border-color: var(--border-color);&quot;&gt;- Mul&lt;br style=&quot;border-color: var(--border-color);&quot;&gt;- Div&lt;/b&gt;" style="shape=parallelogram;perimeter=parallelogramPerimeter;whiteSpace=wrap;html=1;fixedSize=1;" parent="1" vertex="1">
          <mxGeometry x="142.5" y="820" width="150" height="90" as="geometry" />
        </mxCell>
        <mxCell id="8BVpdNehEAl6KAuz26KA-24" value="&lt;b&gt;&lt;font style=&quot;font-size: 21px;&quot;&gt;6096006140 นายปฏิพล&amp;nbsp; กันโฮมภู&lt;/font&gt;&lt;/b&gt;" style="text;strokeColor=none;align=center;fillColor=none;html=1;verticalAlign=middle;whiteSpace=wrap;rounded=0;" parent="1" vertex="1">
          <mxGeometry x="370" y="870" width="440" height="30" as="geometry" />
        </mxCell>
        <mxCell id="qofXAMn2dpPe1JSPpyXG-1" value="Input&lt;br&gt;Number_X&lt;br&gt;Number_Y" style="html=1;strokeWidth=2;shape=manualInput;whiteSpace=wrap;rounded=1;size=26;arcSize=11;fontStyle=1;fillColor=#fff2cc;strokeColor=#d6b656;" parent="1" vertex="1">
          <mxGeometry x="140" y="200" width="150" height="80" as="geometry" />
        </mxCell>
        <mxCell id="mQCN1J5CeiXbtcRmHv7R-14" value="" style="endArrow=classic;html=1;rounded=0;exitX=0.5;exitY=1;exitDx=0;exitDy=0;" edge="1" parent="1" source="8BVpdNehEAl6KAuz26KA-23">
          <mxGeometry width="50" height="50" relative="1" as="geometry">
            <mxPoint x="210" y="920" as="sourcePoint" />
            <mxPoint x="217" y="950" as="targetPoint" />
          </mxGeometry>
        </mxCell>
        <mxCell id="mQCN1J5CeiXbtcRmHv7R-16" value="" style="endArrow=classic;html=1;rounded=0;entryX=0.553;entryY=-0.061;entryDx=0;entryDy=0;entryPerimeter=0;exitX=0.519;exitY=1.01;exitDx=0;exitDy=0;exitPerimeter=0;" edge="1" parent="1" source="qofXAMn2dpPe1JSPpyXG-1">
          <mxGeometry width="50" height="50" relative="1" as="geometry">
            <mxPoint x="217.39" y="280" as="sourcePoint" />
            <mxPoint x="218.36625000000004" y="318.78" as="targetPoint" />
          </mxGeometry>
        </mxCell>
        <mxCell id="mQCN1J5CeiXbtcRmHv7R-22" value="" style="endArrow=none;html=1;rounded=0;exitX=0.953;exitY=0.5;exitDx=0;exitDy=0;exitPerimeter=0;" edge="1" parent="1">
          <mxGeometry width="50" height="50" relative="1" as="geometry">
            <mxPoint x="265.00250000000005" y="620" as="sourcePoint" />
            <mxPoint x="357.01" y="620" as="targetPoint" />
          </mxGeometry>
        </mxCell>
        <mxCell id="mQCN1J5CeiXbtcRmHv7R-24" value="เกิดข้อผิดพลาดเนื่องจากตัวหารเป็น 0" style="shape=parallelogram;perimeter=parallelogramPerimeter;whiteSpace=wrap;html=1;fixedSize=1;" vertex="1" parent="1">
          <mxGeometry x="340" y="597.5" width="220" height="45" as="geometry" />
        </mxCell>
        <mxCell id="mQCN1J5CeiXbtcRmHv7R-25" value="" style="endArrow=none;html=1;rounded=0;exitX=0.544;exitY=1.004;exitDx=0;exitDy=0;exitPerimeter=0;" edge="1" parent="1" source="mQCN1J5CeiXbtcRmHv7R-24">
          <mxGeometry width="50" height="50" relative="1" as="geometry">
            <mxPoint x="449.38" y="650" as="sourcePoint" />
            <mxPoint x="460" y="790" as="targetPoint" />
          </mxGeometry>
        </mxCell>
        <mxCell id="mQCN1J5CeiXbtcRmHv7R-28" value="Add" style="verticalLabelPosition=middle;verticalAlign=middle;html=1;shape=process;whiteSpace=wrap;rounded=1;size=0.14;arcSize=6;labelPosition=center;align=center;" vertex="1" parent="1">
          <mxGeometry x="167.5" y="320" width="100" height="60" as="geometry" />
        </mxCell>
        <mxCell id="mQCN1J5CeiXbtcRmHv7R-33" value="Subtract" style="verticalLabelPosition=middle;verticalAlign=middle;html=1;shape=process;whiteSpace=wrap;rounded=1;size=0.14;arcSize=6;labelPosition=center;align=center;" vertex="1" parent="1">
          <mxGeometry x="165" y="410" width="100" height="60" as="geometry" />
        </mxCell>
        <mxCell id="mQCN1J5CeiXbtcRmHv7R-34" value="" style="endArrow=classic;html=1;rounded=0;entryX=0.5;entryY=0;entryDx=0;entryDy=0;exitX=0.482;exitY=1.012;exitDx=0;exitDy=0;exitPerimeter=0;" edge="1" parent="1" source="mQCN1J5CeiXbtcRmHv7R-28" target="mQCN1J5CeiXbtcRmHv7R-33">
          <mxGeometry width="50" height="50" relative="1" as="geometry">
            <mxPoint x="228" y="301" as="sourcePoint" />
            <mxPoint x="228.36625000000004" y="328.78" as="targetPoint" />
          </mxGeometry>
        </mxCell>
        <mxCell id="mQCN1J5CeiXbtcRmHv7R-35" value="Multiply" style="verticalLabelPosition=middle;verticalAlign=middle;html=1;shape=process;whiteSpace=wrap;rounded=1;size=0.14;arcSize=6;labelPosition=center;align=center;" vertex="1" parent="1">
          <mxGeometry x="165" y="500" width="100" height="60" as="geometry" />
        </mxCell>
        <mxCell id="mQCN1J5CeiXbtcRmHv7R-36" value="" style="endArrow=classic;html=1;rounded=0;entryX=0.5;entryY=0;entryDx=0;entryDy=0;exitX=0.5;exitY=1;exitDx=0;exitDy=0;" edge="1" parent="1" source="mQCN1J5CeiXbtcRmHv7R-33" target="mQCN1J5CeiXbtcRmHv7R-35">
          <mxGeometry width="50" height="50" relative="1" as="geometry">
            <mxPoint x="226" y="391" as="sourcePoint" />
            <mxPoint x="225" y="420" as="targetPoint" />
          </mxGeometry>
        </mxCell>
        <mxCell id="mQCN1J5CeiXbtcRmHv7R-37" value="Divide&lt;br&gt;(X, Y)" style="verticalLabelPosition=middle;verticalAlign=middle;html=1;shape=process;whiteSpace=wrap;rounded=1;size=0.14;arcSize=6;labelPosition=center;align=center;" vertex="1" parent="1">
          <mxGeometry x="167.5" y="690" width="100" height="60" as="geometry" />
        </mxCell>
        <mxCell id="mQCN1J5CeiXbtcRmHv7R-39" value="IF Y == 0" style="strokeWidth=2;html=1;shape=mxgraph.flowchart.decision;whiteSpace=wrap;" vertex="1" parent="1">
          <mxGeometry x="167.5" y="590" width="100" height="60" as="geometry" />
        </mxCell>
        <mxCell id="mQCN1J5CeiXbtcRmHv7R-42" value="" style="endArrow=classic;html=1;rounded=0;entryX=0.513;entryY=0.119;entryDx=0;entryDy=0;entryPerimeter=0;exitX=0.5;exitY=1;exitDx=0;exitDy=0;exitPerimeter=0;" edge="1" parent="1" source="8BVpdNehEAl6KAuz26KA-6" target="qofXAMn2dpPe1JSPpyXG-1">
          <mxGeometry width="50" height="50" relative="1" as="geometry">
            <mxPoint x="228" y="291" as="sourcePoint" />
            <mxPoint x="228.36625000000004" y="328.78" as="targetPoint" />
          </mxGeometry>
        </mxCell>
        <mxCell id="mQCN1J5CeiXbtcRmHv7R-43" value="" style="endArrow=classic;html=1;rounded=0;" edge="1" parent="1">
          <mxGeometry width="50" height="50" relative="1" as="geometry">
            <mxPoint x="460" y="789.47" as="sourcePoint" />
            <mxPoint x="230" y="789.47" as="targetPoint" />
          </mxGeometry>
        </mxCell>
        <mxCell id="mQCN1J5CeiXbtcRmHv7R-44" value="" style="endArrow=classic;html=1;rounded=0;exitX=0.526;exitY=1.016;exitDx=0;exitDy=0;exitPerimeter=0;" edge="1" parent="1" source="mQCN1J5CeiXbtcRmHv7R-35">
          <mxGeometry width="50" height="50" relative="1" as="geometry">
            <mxPoint x="140" y="590" as="sourcePoint" />
            <mxPoint x="218" y="590" as="targetPoint" />
          </mxGeometry>
        </mxCell>
        <mxCell id="mQCN1J5CeiXbtcRmHv7R-45" value="" style="endArrow=classic;html=1;rounded=0;exitX=0.526;exitY=1.016;exitDx=0;exitDy=0;exitPerimeter=0;entryX=0.5;entryY=0;entryDx=0;entryDy=0;" edge="1" parent="1" target="mQCN1J5CeiXbtcRmHv7R-37">
          <mxGeometry width="50" height="50" relative="1" as="geometry">
            <mxPoint x="217.36" y="650" as="sourcePoint" />
            <mxPoint x="220" y="690" as="targetPoint" />
          </mxGeometry>
        </mxCell>
        <mxCell id="mQCN1J5CeiXbtcRmHv7R-48" value="Add" style="strokeWidth=2;html=1;shape=mxgraph.flowchart.terminator;whiteSpace=wrap;fontStyle=1;fillColor=#d5e8d4;strokeColor=#82b366;" vertex="1" parent="1">
          <mxGeometry x="590" y="80" width="110" height="50" as="geometry" />
        </mxCell>
        <mxCell id="mQCN1J5CeiXbtcRmHv7R-49" value="RETURN" style="strokeWidth=2;html=1;shape=mxgraph.flowchart.terminator;whiteSpace=wrap;fontStyle=1;fillColor=#f8cecc;strokeColor=#b85450;" vertex="1" parent="1">
          <mxGeometry x="595" y="260" width="100" height="50" as="geometry" />
        </mxCell>
        <mxCell id="mQCN1J5CeiXbtcRmHv7R-50" value="" style="endArrow=classic;html=1;rounded=0;exitX=0.5;exitY=1;exitDx=0;exitDy=0;exitPerimeter=0;entryX=0.5;entryY=0;entryDx=0;entryDy=0;" edge="1" parent="1" source="mQCN1J5CeiXbtcRmHv7R-48" target="8BVpdNehEAl6KAuz26KA-9">
          <mxGeometry width="50" height="50" relative="1" as="geometry">
            <mxPoint x="570" y="280" as="sourcePoint" />
            <mxPoint x="620" y="230" as="targetPoint" />
          </mxGeometry>
        </mxCell>
        <mxCell id="mQCN1J5CeiXbtcRmHv7R-51" value="" style="endArrow=classic;html=1;rounded=0;exitX=0.5;exitY=1;exitDx=0;exitDy=0;entryX=0.5;entryY=0;entryDx=0;entryDy=0;entryPerimeter=0;" edge="1" parent="1" source="8BVpdNehEAl6KAuz26KA-9" target="mQCN1J5CeiXbtcRmHv7R-49">
          <mxGeometry width="50" height="50" relative="1" as="geometry">
            <mxPoint x="655" y="140" as="sourcePoint" />
            <mxPoint x="655" y="180" as="targetPoint" />
          </mxGeometry>
        </mxCell>
        <mxCell id="mQCN1J5CeiXbtcRmHv7R-52" value="Subtract = Number_X - Number_Y" style="rounded=1;whiteSpace=wrap;html=1;absoluteArcSize=1;arcSize=14;strokeWidth=2;fontStyle=1" vertex="1" parent="1">
          <mxGeometry x="770" y="170" width="200" height="50" as="geometry" />
        </mxCell>
        <mxCell id="mQCN1J5CeiXbtcRmHv7R-53" value="Subtract" style="strokeWidth=2;html=1;shape=mxgraph.flowchart.terminator;whiteSpace=wrap;fontStyle=1;fillColor=#d5e8d4;strokeColor=#82b366;" vertex="1" parent="1">
          <mxGeometry x="815" y="80" width="110" height="50" as="geometry" />
        </mxCell>
        <mxCell id="mQCN1J5CeiXbtcRmHv7R-54" value="RETURN" style="strokeWidth=2;html=1;shape=mxgraph.flowchart.terminator;whiteSpace=wrap;fontStyle=1;fillColor=#f8cecc;strokeColor=#b85450;" vertex="1" parent="1">
          <mxGeometry x="820" y="260" width="100" height="50" as="geometry" />
        </mxCell>
        <mxCell id="mQCN1J5CeiXbtcRmHv7R-55" value="" style="endArrow=classic;html=1;rounded=0;exitX=0.5;exitY=1;exitDx=0;exitDy=0;exitPerimeter=0;entryX=0.5;entryY=0;entryDx=0;entryDy=0;" edge="1" parent="1" source="mQCN1J5CeiXbtcRmHv7R-53" target="mQCN1J5CeiXbtcRmHv7R-52">
          <mxGeometry width="50" height="50" relative="1" as="geometry">
            <mxPoint x="788.75" y="280" as="sourcePoint" />
            <mxPoint x="838.75" y="230" as="targetPoint" />
          </mxGeometry>
        </mxCell>
        <mxCell id="mQCN1J5CeiXbtcRmHv7R-56" value="" style="endArrow=classic;html=1;rounded=0;exitX=0.5;exitY=1;exitDx=0;exitDy=0;entryX=0.5;entryY=0;entryDx=0;entryDy=0;entryPerimeter=0;" edge="1" parent="1" source="mQCN1J5CeiXbtcRmHv7R-52" target="mQCN1J5CeiXbtcRmHv7R-54">
          <mxGeometry width="50" height="50" relative="1" as="geometry">
            <mxPoint x="873.75" y="140" as="sourcePoint" />
            <mxPoint x="873.75" y="180" as="targetPoint" />
          </mxGeometry>
        </mxCell>
        <mxCell id="mQCN1J5CeiXbtcRmHv7R-57" value="Multiply = Number_X * Number_Y" style="rounded=1;whiteSpace=wrap;html=1;absoluteArcSize=1;arcSize=14;strokeWidth=2;fontStyle=1" vertex="1" parent="1">
          <mxGeometry x="1000" y="170" width="200" height="50" as="geometry" />
        </mxCell>
        <mxCell id="mQCN1J5CeiXbtcRmHv7R-58" value="Multiply" style="strokeWidth=2;html=1;shape=mxgraph.flowchart.terminator;whiteSpace=wrap;fontStyle=1;fillColor=#d5e8d4;strokeColor=#82b366;" vertex="1" parent="1">
          <mxGeometry x="1045" y="80" width="110" height="50" as="geometry" />
        </mxCell>
        <mxCell id="mQCN1J5CeiXbtcRmHv7R-59" value="RETURN" style="strokeWidth=2;html=1;shape=mxgraph.flowchart.terminator;whiteSpace=wrap;fontStyle=1;fillColor=#f8cecc;strokeColor=#b85450;" vertex="1" parent="1">
          <mxGeometry x="1050" y="260" width="100" height="50" as="geometry" />
        </mxCell>
        <mxCell id="mQCN1J5CeiXbtcRmHv7R-60" value="" style="endArrow=classic;html=1;rounded=0;exitX=0.5;exitY=1;exitDx=0;exitDy=0;exitPerimeter=0;entryX=0.5;entryY=0;entryDx=0;entryDy=0;" edge="1" parent="1" source="mQCN1J5CeiXbtcRmHv7R-58" target="mQCN1J5CeiXbtcRmHv7R-57">
          <mxGeometry width="50" height="50" relative="1" as="geometry">
            <mxPoint x="1018.75" y="280" as="sourcePoint" />
            <mxPoint x="1068.75" y="230" as="targetPoint" />
          </mxGeometry>
        </mxCell>
        <mxCell id="mQCN1J5CeiXbtcRmHv7R-61" value="" style="endArrow=classic;html=1;rounded=0;exitX=0.5;exitY=1;exitDx=0;exitDy=0;entryX=0.5;entryY=0;entryDx=0;entryDy=0;entryPerimeter=0;" edge="1" parent="1" source="mQCN1J5CeiXbtcRmHv7R-57" target="mQCN1J5CeiXbtcRmHv7R-59">
          <mxGeometry width="50" height="50" relative="1" as="geometry">
            <mxPoint x="1103.75" y="140" as="sourcePoint" />
            <mxPoint x="1103.75" y="180" as="targetPoint" />
          </mxGeometry>
        </mxCell>
        <mxCell id="mQCN1J5CeiXbtcRmHv7R-62" value="Divide = Number_X / Number_Y" style="rounded=1;whiteSpace=wrap;html=1;absoluteArcSize=1;arcSize=14;strokeWidth=2;fontStyle=1" vertex="1" parent="1">
          <mxGeometry x="670" y="457.5" width="187.5" height="50" as="geometry" />
        </mxCell>
        <mxCell id="mQCN1J5CeiXbtcRmHv7R-63" value="Divide" style="strokeWidth=2;html=1;shape=mxgraph.flowchart.terminator;whiteSpace=wrap;fontStyle=1;fillColor=#d5e8d4;strokeColor=#82b366;" vertex="1" parent="1">
          <mxGeometry x="708.75" y="367.5" width="110" height="50" as="geometry" />
        </mxCell>
        <mxCell id="mQCN1J5CeiXbtcRmHv7R-64" value="RETURN" style="strokeWidth=2;html=1;shape=mxgraph.flowchart.terminator;whiteSpace=wrap;fontStyle=1;fillColor=#f8cecc;strokeColor=#b85450;" vertex="1" parent="1">
          <mxGeometry x="713.75" y="547.5" width="100" height="50" as="geometry" />
        </mxCell>
        <mxCell id="mQCN1J5CeiXbtcRmHv7R-65" value="" style="endArrow=classic;html=1;rounded=0;exitX=0.5;exitY=1;exitDx=0;exitDy=0;exitPerimeter=0;entryX=0.5;entryY=0;entryDx=0;entryDy=0;" edge="1" parent="1" source="mQCN1J5CeiXbtcRmHv7R-63" target="mQCN1J5CeiXbtcRmHv7R-62">
          <mxGeometry width="50" height="50" relative="1" as="geometry">
            <mxPoint x="688.75" y="567.5" as="sourcePoint" />
            <mxPoint x="738.75" y="517.5" as="targetPoint" />
          </mxGeometry>
        </mxCell>
        <mxCell id="mQCN1J5CeiXbtcRmHv7R-66" value="" style="endArrow=classic;html=1;rounded=0;exitX=0.5;exitY=1;exitDx=0;exitDy=0;entryX=0.5;entryY=0;entryDx=0;entryDy=0;entryPerimeter=0;" edge="1" parent="1" source="mQCN1J5CeiXbtcRmHv7R-62" target="mQCN1J5CeiXbtcRmHv7R-64">
          <mxGeometry width="50" height="50" relative="1" as="geometry">
            <mxPoint x="773.75" y="427.5" as="sourcePoint" />
            <mxPoint x="773.75" y="467.5" as="targetPoint" />
          </mxGeometry>
        </mxCell>
        <mxCell id="mQCN1J5CeiXbtcRmHv7R-67" value="" style="ellipse;whiteSpace=wrap;html=1;" vertex="1" parent="1">
          <mxGeometry x="210" y="780" width="20" height="20" as="geometry" />
        </mxCell>
        <mxCell id="mQCN1J5CeiXbtcRmHv7R-68" value="" style="endArrow=classic;html=1;rounded=0;entryX=0.5;entryY=0;entryDx=0;entryDy=0;" edge="1" parent="1" target="mQCN1J5CeiXbtcRmHv7R-67">
          <mxGeometry width="50" height="50" relative="1" as="geometry">
            <mxPoint x="220" y="750" as="sourcePoint" />
            <mxPoint x="460" y="740" as="targetPoint" />
          </mxGeometry>
        </mxCell>
        <mxCell id="mQCN1J5CeiXbtcRmHv7R-69" value="" style="endArrow=classic;html=1;rounded=0;exitX=0.5;exitY=1;exitDx=0;exitDy=0;" edge="1" parent="1" source="mQCN1J5CeiXbtcRmHv7R-67" target="8BVpdNehEAl6KAuz26KA-23">
          <mxGeometry width="50" height="50" relative="1" as="geometry">
            <mxPoint x="228" y="760" as="sourcePoint" />
            <mxPoint x="230" y="790" as="targetPoint" />
          </mxGeometry>
        </mxCell>
      </root>
    </mxGraphModel>
  </diagram>
</mxfile>
